<?xml version="1.0" encoding="UTF-8"?>
<svg width="21px" height="19px" viewBox="0 0 21 19" version="1.1" xmlns="http://www.w3.org/2000/svg" xmlns:xlink="http://www.w3.org/1999/xlink">
    <!-- Generator: Sketch 52.4 (67378) - http://www.bohemiancoding.com/sketch -->
    <title>Shape</title>
    <desc>Created with Sketch.</desc>
    <g id="Symbols" stroke="none" stroke-width="1" fill="none" fill-rule="evenodd">
        <g id="btn/join" transform="translate(-12.000000, -13.000000)" fill="#CCCCCC" fill-rule="nonzero">
            <g id="Going">
                <path d="M18.825,16 C17.9551515,16 17.25,16.6715729 17.25,17.5 C17.25,18.3284271 17.9551515,19 18.825,19 C19.6948485,19 20.4,18.3284271 20.4,17.5 C20.4,16.6715729 19.6948485,16 18.825,16 Z M20.4,13 C21.7923866,13 23.1277446,13.5267842 24.1123106,14.4644661 C25.0968766,15.402148 25.65,16.6739176 25.65,18 C25.65,19.7 24.7575,21.2 23.403,22.1 C25.062,22.25 26.931,22.61 28.8,23.5 C31.95,25 33,23 33,23 C33,23 31.95,32 25.65,32 L19.35,32 C19.35,32 14.1,32 14.1,27 C14.1,24 17.25,23 16.2,21 C12,21 12,17.5 12,17.5 C13.05,18 14.352,18 15.15,17.65 C15.3532626,15.030659 17.6421933,13.0033204 20.4,13 Z" id="Shape"></path>
            </g>
        </g>
    </g>
</svg>