<?xml version="1.0" encoding="UTF-8"?>
<svg width="38px" height="38px" viewBox="0 0 38 38" version="1.1" xmlns="http://www.w3.org/2000/svg" xmlns:xlink="http://www.w3.org/1999/xlink">
    <!-- Generator: Sketch 52.5 (67469) - http://www.bohemiancoding.com/sketch -->
    <title>like copy</title>
    <desc>Created with Sketch.</desc>
    <g id="Symbols" stroke="none" stroke-width="1" fill="none" fill-rule="evenodd">
        <g id="btn/liked">
            <g id="like-copy">
                <path d="M10,28 C10,28 17.2168493,15.3586933 30,8 C22.8003439,20.9421878 10,28 10,28 Z" id="Path" fill="#FFFFFF"></path>
                <path d="M30,28 C30,28 22.7831507,15.3586933 10,8 C17.1996561,20.9421878 30,28 30,28 Z" id="Path" fill="#FFFFFF"></path>
                <path d="M9,11.5 C8.99999998,12.0358984 9.28589837,12.5310889 9.74999999,12.7990381 C10.2141016,13.0669873 10.7858984,13.0669873 11.25,12.7990381 C11.7141016,12.5310889 12,12.0358984 12,11.5 C12,10.9641016 11.7141016,10.4689111 11.25,10.2009619 C10.7858984,9.9330127 10.2141016,9.9330127 9.74999999,10.2009619 C9.28589837,10.4689111 8.99999998,10.9641016 9,11.5 Z" id="Path" fill="#FFFFFF"></path>
                <path d="M9,19.5 C8.99999998,20.0358984 9.28589837,20.5310889 9.74999999,20.7990381 C10.2141016,21.0669873 10.7858984,21.0669873 11.25,20.7990381 C11.7141016,20.5310889 12,20.0358984 12,19.5 C12,18.9641016 11.7141016,18.4689111 11.25,18.2009619 C10.7858984,17.9330127 10.2141016,17.9330127 9.74999999,18.2009619 C9.28589837,18.4689111 8.99999998,18.9641016 9,19.5 Z" id="Path" fill="#FFFFFF"></path>
                <path d="M9,26.5 C8.99999998,27.0358984 9.28589837,27.5310889 9.74999999,27.7990381 C10.2141016,28.0669873 10.7858984,28.0669873 11.25,27.7990381 C11.7141016,27.5310889 12,27.0358984 12,26.5 C12,25.9641016 11.7141016,25.4689111 11.25,25.2009619 C10.7858984,24.9330127 10.2141016,24.9330127 9.74999999,25.2009619 C9.28589837,25.4689111 8.99999998,25.9641016 9,26.5 Z" id="Path" fill="#FFFFFF"></path>
                <path d="M31,11.1588972 C31,11.1588972 22.0642857,8.55137845 13,11.1588972 C22.0642857,13.9197995 31,11.1588972 31,11.1588972 Z M31,18.6150376 C31,18.6150376 22.0642857,16.0075188 13,18.6150376 C22.0642857,21.3759398 31,18.6150376 31,18.6150376 Z M31,25.7729323 C31,25.7729323 22.0642857,23.1654135 13,25.7729323 C22.0642857,28.5338346 31,25.7729323 31,25.7729323 Z" id="Shape" fill="#FFFFFF" fill-rule="nonzero"></path>
                <path d="M1.205385e-15,19 C1.205385e-15,29.4934102 8.50658975,38 19,38 C29.4934102,38 38,29.4934102 38,19 C38,8.50658975 29.4934102,6.02692499e-16 19,0 C8.50658975,-6.02692499e-16 1.205385e-15,8.50658975 1.205385e-15,19 Z" id="Path" fill-opacity="0.4" fill="#000000"></path>
                <path d="M25.420529,11.0287006 C21.9639493,10.6582432 19.4974672,13.9964759 19.4974672,13.9964759 C19.4974672,13.9964759 17.0266041,10.6623594 13.5744054,11.0287006 C9.58334823,11.4526685 6.96353243,15.852879 8.39610729,19.3310622 C9.82430118,22.8092455 17.0090803,24.5215818 19.5018482,29 C21.9902351,24.5215818 29.1750142,22.8092455 30.607589,19.3310622 C32.031402,15.852879 29.4159671,11.4567847 25.420529,11.0287006 Z" id="Path" fill="#ED153F"></path>
            </g>
        </g>
    </g>
</svg>