<?xml version="1.0" encoding="UTF-8"?>
<svg width="20px" height="19px" viewBox="0 0 20 19" version="1.1" xmlns="http://www.w3.org/2000/svg" xmlns:xlink="http://www.w3.org/1999/xlink">
    <!-- Generator: Sketch 52.4 (67378) - http://www.bohemiancoding.com/sketch -->
    <title>Shape</title>
    <desc>Created with Sketch.</desc>
    <g id="Page-1" stroke="none" stroke-width="1" fill="none" fill-rule="evenodd">
        <g id="Discover" transform="translate(-178.000000, -46.000000)" fill="#FFFFFF" fill-rule="nonzero">
            <g id="nav-bar" transform="translate(0.000000, 31.000000)">
                <path d="M196,24 L195.482263,19 L194,22.5021739 C194.838905,22.612252 195.581517,23.168404 196,24 Z M183,28 C184.124286,27.9336927 185,27.0579783 185,26 C185,24.9420217 184.124286,24.0663073 183,24 C181.875714,24.0663073 181,24.9420217 181,26 C181,27.0579783 181.875714,27.9336927 183,28 Z M191.003445,26.1256821 C191.071862,27.2119645 191.996515,28.0441054 193.084125,27.9981878 C194.171735,27.9522701 195.02294,27.0451545 194.999528,25.9569721 C194.976117,24.8687897 194.086687,23.9991122 192.998108,24.0000007 C191.864378,24.0364833 190.972436,24.980694 191.000651,26.114509 L191.003445,26.1256821 Z M197.024784,16.2085384 L198,22.7795276 C197.343708,24.2288386 196.687416,25.6781496 196.031124,27.1274606 C195.992463,27.2248735 195.948594,27.3200771 195.899712,27.4126476 C195.361824,28.4844105 194.279931,29.1631421 193.093948,29.1728593 C192.238484,29.1703938 191.421273,28.8131085 190.832277,28.1840551 L187.996542,34 L185.167723,28.1840551 C184.578727,28.8131085 183.761516,29.1703938 182.906052,29.1728593 C181.719768,29.1642023 180.637375,28.4851573 180.100288,27.4126476 C180.093114,27.4044845 180.087627,27.3949463 180.08415,27.3845965 C180.047262,27.2981053 180.008069,27.2139518 179.968876,27.1274606 C179.314121,25.6781496 178.657829,24.2288386 178,22.7795276 L178.9683,16.2085384 L181.504323,15 L187.996542,28.6422244 L194.477233,15 L197.024784,16.2085384 Z M182,22.4934783 L180.519157,19 L180,24 C180.417611,23.1654797 181.160146,22.6061573 182,22.4934783 Z" id="Shape"></path>
            </g>
        </g>
    </g>
</svg>