<?xml version="1.0" encoding="UTF-8"?>
<svg width="17px" height="16px" viewBox="0 0 17 16" version="1.1" xmlns="http://www.w3.org/2000/svg" xmlns:xlink="http://www.w3.org/1999/xlink">
    <!-- Generator: Sketch 52.5 (67469) - http://www.bohemiancoding.com/sketch -->
    <title>Shape</title>
    <desc>Created with Sketch.</desc>
    <g id="Page-1" stroke="none" stroke-width="1" fill="none" fill-rule="evenodd">
        <g id="Detail-Page-2" transform="translate(-330.000000, -689.000000)" fill="#7686AA" fill-rule="nonzero">
            <g id="Group-2" transform="translate(20.000000, 660.000000)">
                <g id="Group-4" transform="translate(294.000000, 29.000000)">
                    <g id="赞" transform="translate(16.000000, 0.000000)">
                        <path d="M16.943873,6.9589721 L15.046709,15.2396987 L15.0499471,15.2659282 L13.9403598,15.9854674 L13.9310053,16 L0,16 L0,6.56517502 L3.53671958,6.56517502 L6.90361906,0.543376171 L6.90721694,0.519273378 L8.25318519,0 L10.4730794,0.775897222 L10.4755979,0.784049635 L10.4946667,0.785821896 L11.1001905,2.0785113 L11.095873,2.08241028 L10.0226243,5.83961011 L15.7724021,5.83961011 L15.808381,5.83181214 L15.8170159,5.83961011 L17,6.87106779 L16.943873,6.9589721 Z M2.94810583,8.01665928 L1.47297356,8.01665928 L1.47297356,14.5481613 L2.94810583,14.5481613 L2.94810583,8.01665928 Z M8.10603175,7.29073992 L8.10926985,7.28471423 L8.05961905,7.28471423 L9.53834922,2.05653523 L9.50884657,1.98564466 L8.15460317,1.53265397 L8.10819049,1.54860435 L4.42071958,8.11058928 L4.42071958,14.5481613 L13.6759153,14.5481613 L13.6964233,14.5343376 L15.3874286,7.29073992 L8.10495239,7.29073992 L8.10603175,7.29073992 Z" id="Shape"></path>
                    </g>
                </g>
            </g>
        </g>
    </g>
</svg>