<?xml version="1.0" encoding="UTF-8"?>
<svg width="330px" height="298px" viewBox="0 0 330 298" version="1.1" xmlns="http://www.w3.org/2000/svg" xmlns:xlink="http://www.w3.org/1999/xlink">
    <!-- Generator: Sketch 52.3 (67297) - http://www.bohemiancoding.com/sketch -->
    <title>Group 31</title>
    <desc>Created with Sketch.</desc>
    <defs>
        <polygon id="path-1" points="0 0.978187515 329.417177 0.978187515 329.417177 298 0 298"></polygon>
    </defs>
    <g id="Page-2" stroke="none" stroke-width="1" fill="none" fill-rule="evenodd">
        <g id="Group-31" transform="translate(0.000000, -1.000000)">
            <path d="M246.9582,224.5376 C245.8532,231.7216 243.1122,238.7056 238.9542,244.7286 C238.4152,245.4676 237.9182,246.2386 237.3392,246.9446 L235.6042,249.0666 C234.3672,250.4066 233.1322,251.7506 231.7702,252.9586 C229.0822,255.3956 226.1892,257.6116 223.0882,259.4176 C210.6992,266.6906 196.7722,269.7146 183.0242,270.3286 C176.1322,270.6016 169.2312,270.2846 162.4212,269.2956 C155.6102,268.3206 148.8692,266.7916 142.3282,264.5476 C139.0422,263.4776 135.8422,262.1316 132.6682,260.7276 C129.5352,259.2206 126.4132,257.6676 123.4502,255.7876 C122.6952,255.3456 121.9562,254.8756 121.2332,254.3726 L119.0512,252.8946 C117.6492,251.8226 116.2002,250.8216 114.8662,249.6476 L113.2282,248.2716 C112.6362,247.7216 112.0262,247.1686 111.5032,246.6056 L108.2462,243.2446 C107.9792,242.9656 107.6932,242.6836 107.4422,242.4056 L106.8082,241.5906 L105.5392,239.9586 C104.6922,238.8706 103.8252,237.7776 103.0842,236.7176 L98.2422,230.0176 L96.2222,227.2176 L95.6562,226.4326 L95.3362,225.9876 L95.2562,225.8766 C95.2582,225.8576 95.3662,225.9056 95.4172,225.9176 L95.8002,226.0386 L98.9102,227.0166 C100.8532,227.6156 102.7952,228.2366 104.6902,228.8356 C104.5142,228.6896 104.3352,228.5526 104.1592,228.4056 C103.4772,227.8576 102.8062,227.2516 102.1382,226.6356 C101.8042,226.3256 101.4682,226.0326 101.1362,225.7096 L100.1472,224.6916 C99.8202,224.3386 99.4892,224.0426 99.1662,223.6396 L98.2022,222.4536 L98.0482,222.2606 C96.6422,223.6556 96.9762,223.3066 98.0302,222.2386 L97.7252,221.8556 L97.2582,221.1186 L96.8022,220.3736 L96.5782,219.9986 L96.4682,219.8096 L96.4132,219.7166 C95.0272,221.0266 108.1742,207.8536 102.6422,213.4486 C105.3952,214.7786 108.4092,216.0626 111.3522,217.2066 C111.5782,217.2946 111.8062,217.3766 112.0322,217.4626 C108.8222,215.0906 105.6952,212.5536 102.7262,209.7376 C101.0172,208.0936 99.3632,206.3536 97.7952,204.4846 L96.4142,202.7376 C95.7572,201.8506 95.2152,200.9326 94.6092,200.0316 C94.3192,199.5786 94.0072,199.1256 93.7352,198.6746 L93.0732,197.3276 C92.6532,196.4366 92.1212,195.5076 91.8852,194.6826 L91.8852,194.6816 C91.6142,193.8716 91.2622,193.0206 91.0582,192.2436 L90.5492,189.9636 L89.4582,185.0706 L89.0262,183.1036 L88.7932,182.0376 L88.7252,181.7256 C88.7292,181.6886 88.6672,181.5866 88.7252,181.6036 L88.9482,181.7036 L89.8402,182.0996 L96.9112,185.2356 C99.0492,186.0426 101.2232,186.9196 103.3292,187.6686 L104.8802,188.1726 L106.4112,188.6146 L108.1112,189.1056 C110.1012,189.6016 112.0842,190.1236 114.1012,190.5036 C122.1322,192.1916 130.3702,192.7806 138.4792,192.2596 C139.5872,192.1706 140.7042,192.1496 141.8042,192.0086 L145.1012,191.5566 L146.7492,191.3346 C147.2982,191.2566 147.8332,191.1106 148.3752,191.0036 L151.6212,190.3086 C152.7152,190.1176 153.7622,189.7616 154.8202,189.4466 L157.9942,188.4956 C160.1362,187.8156 162.3452,186.9826 164.5122,186.2006 C168.8632,184.5966 173.2032,182.8936 177.5962,181.1876 C179.7952,180.3366 182.0042,179.4816 184.2522,178.6546 L187.6452,177.4326 L189.9752,176.6416 C191.7922,176.0536 193.6292,175.4836 195.5242,174.9936 C199.2702,174.5136 203.1352,174.2656 207.0002,174.6316 C209.4362,174.8536 211.8542,175.3056 214.1612,176.0286 C216.4672,176.7656 218.6462,177.7606 220.6622,178.9386 C224.7122,181.2966 228.0472,184.4256 231.0202,187.7306 L234.3922,183.7966 C237.3902,186.4146 239.7212,189.4966 241.5692,192.7416 C243.4212,195.9916 244.7662,199.4336 245.7342,202.9486 C247.6562,209.9806 248.0602,217.3486 246.9582,224.5376 M233.3742,44.2746 C243.5062,44.2746 251.7202,52.4876 251.7202,62.6196 C251.7202,72.7516 243.5062,80.9656 233.3742,80.9656 C223.2422,80.9656 215.0292,72.7516 215.0292,62.6196 C215.0292,52.4876 223.2422,44.2746 233.3742,44.2746 M282.8292,181.3226 C282.5532,180.9076 282.2682,180.5046 281.9542,180.1396 C281.6282,179.7476 281.3972,179.4146 280.9982,178.9706 L279.8732,177.6836 C276.8512,174.2586 273.7332,170.8596 270.6112,167.4106 C267.4892,163.9606 264.3592,160.4636 261.3262,156.7756 C259.8112,154.9296 258.3212,153.0276 256.8932,151.0136 C255.4672,148.9956 254.0892,146.8816 252.8952,144.4386 C252.2872,143.2446 251.7632,141.8866 251.3272,140.4316 C250.9202,138.9456 250.6302,137.2336 250.8122,135.2876 C250.8932,134.3226 251.1492,133.2866 251.5432,132.3086 C251.7682,131.8266 251.9802,131.3256 252.2632,130.8826 C252.5462,130.4546 252.8722,129.9946 253.1632,129.6196 L255.4072,126.9556 C256.4542,125.7166 257.4562,124.4806 258.4412,123.2386 C258.0652,123.0486 257.6922,122.8546 257.3312,122.6366 C256.9582,122.3666 256.5912,122.0806 256.2362,121.7836 C255.8622,121.4966 255.5812,121.1566 255.2882,120.8156 C255.0142,120.4756 254.6812,120.1176 254.4872,119.7716 C254.0722,119.0806 253.6342,118.3346 253.4162,117.6856 L253.0332,116.6726 L252.7832,115.7356 L252.5532,114.8006 L252.4072,113.9296 C252.3082,113.3436 252.2202,112.7636 252.1822,112.2276 L252.1042,111.4056 C252.0792,111.1336 252.0492,110.8836 252.0482,110.4626 C252.0142,109.7086 252.0702,108.9466 252.1752,108.1836 C252.4122,106.6646 252.9322,105.2266 253.5942,103.9836 C254.2542,102.7246 255.0512,101.7046 255.8512,100.7746 C257.4692,98.9366 259.1462,97.5866 260.7322,96.3296 C262.3192,95.0906 263.8472,93.9746 265.1912,92.8766 C266.5312,91.7866 267.7122,90.6896 268.4282,89.6946 C268.7832,89.2006 269.0612,88.7416 269.1912,88.3446 C269.3322,87.9186 269.3812,87.6446 269.4012,87.1376 C269.4252,82.9906 269.7842,79.0166 270.4372,74.9686 C270.7782,72.9376 271.1722,70.9246 271.8502,68.7356 C272.0202,68.1876 272.2192,67.6186 272.4672,67.0116 C272.7242,66.3986 272.9942,65.7696 273.5362,64.9386 C273.6032,64.8386 273.6652,64.7426 273.7372,64.6406 C273.4782,63.5036 273.2202,62.3676 272.9202,61.2436 C271.2942,55.1136 269.1122,49.1556 266.1872,43.7076 C263.2672,38.2686 259.5672,33.3446 255.0202,29.5876 C253.9412,28.6556 252.5792,27.7366 251.3112,26.8116 C250.0482,25.8566 248.7062,25.0226 247.3752,24.1726 C246.7062,23.7526 246.0542,23.3046 245.3722,22.9076 L243.3122,21.7436 L241.2522,20.5806 L239.1332,19.5386 C227.8522,13.9496 215.3422,10.9626 202.8572,11.3156 C190.3382,11.6786 178.1842,15.4926 166.9292,21.5306 C164.1192,23.0276 161.3782,24.6636 158.6102,26.3976 C155.8232,28.1226 153.0622,29.9886 149.8422,31.7326 C148.2322,32.5956 146.5102,33.4306 144.6012,34.0846 C142.6922,34.7336 140.6062,35.1756 138.5092,35.2966 C136.4172,35.4146 134.3142,35.2696 132.3802,34.8596 C131.4042,34.6716 130.4582,34.4266 129.5372,34.1586 L128.3392,33.7796 C128.3322,33.7756 128.3252,33.7716 128.3312,33.7826 L128.5512,34.0946 L129.1752,34.9876 L129.3312,35.2116 C129.3832,35.2866 129.5612,35.4796 129.6702,35.6076 L130.4202,36.4676 L131.9212,38.1866 L132.1102,38.4016 L132.4332,38.6406 L133.0772,39.1176 L134.3662,40.0716 L136.9522,41.9816 L140.7672,44.3136 L148.6582,49.1366 L150.6842,50.3746 C150.7402,50.4176 150.9152,50.4976 150.8752,50.5096 L150.6462,50.5096 L150.1882,50.5096 L149.6202,50.5106 L147.8842,50.5116 L140.9552,50.5116 L129.7842,50.5116 C129.7762,50.5096 129.7792,50.5146 129.7832,50.5176 L129.8662,50.5786 C130.1442,50.7936 130.4442,50.9516 130.7322,51.1376 C131.3072,51.5216 131.9092,51.8186 132.5062,52.1306 C132.7992,52.3026 133.1092,52.4086 133.4132,52.5406 L133.8702,52.7336 L133.9832,52.7826 L134.1152,52.8386 C134.2632,52.9056 134.2872,52.9086 134.3402,52.9246 C134.5412,52.9856 134.7362,53.0526 134.9542,53.0986 C136.6482,53.4926 138.3612,53.9496 140.0402,54.2896 L142.5672,54.8286 L142.8842,54.8956 L143.0422,54.9296 C143.0402,54.9696 143.0062,55.0256 142.9892,55.0726 L142.7382,55.6706 L142.2312,56.8826 C141.5502,58.5086 140.8522,60.1326 140.2892,61.7096 C139.9792,62.5046 139.7212,63.2956 139.4852,64.0826 C139.3432,64.5446 139.2492,64.8446 139.1432,65.2406 C138.9302,65.9846 138.7272,66.7336 138.5462,67.4896 C138.1662,68.9966 137.8532,70.5246 137.5742,72.0566 C137.0272,75.1236 136.6892,78.2266 136.5602,81.3276 C136.4242,84.4286 136.4972,87.5326 136.8402,90.5976 C136.9552,92.1386 137.2532,93.6496 137.4772,95.1726 C137.8092,96.6716 138.0622,98.1916 138.5072,99.6606 C141.7502,112.0676 149.5182,122.9656 159.7612,131.0586 L163.2742,133.7396 L169.9122,138.1396 C175.9632,141.5786 174.7212,142.7006 175.9062,144.5946 L176.0532,144.9256 C176.1072,145.0346 176.1572,145.1446 176.1362,145.2666 C176.1382,145.5016 176.1112,145.7436 176.0712,146.0156 C176.0352,146.2746 175.9492,146.6436 175.7942,147.0436 C175.6502,147.4146 175.5382,147.6296 175.4222,147.8256 C174.9812,148.5696 174.4782,149.0886 173.5782,149.6596 C173.1062,149.9286 172.5122,150.1786 171.7422,150.3666 C170.9132,150.5266 169.9402,150.6316 168.7352,150.5956 C166.3642,150.5506 163.6572,150.2636 161.0702,150.0546 L157.1732,149.7526 L154.6932,149.5996 C153.4352,149.5316 152.1792,149.4796 150.9262,149.4466 C148.4212,149.3786 145.9272,149.3906 143.4472,149.4906 C138.4912,149.6956 133.5892,150.2746 128.8432,151.3516 C126.8452,151.8076 124.8742,152.3496 122.9432,152.9826 C121.9712,153.3106 121.0462,153.6346 120.0592,154.0216 L117.0592,155.2026 C113.0602,156.7806 109.1022,158.4846 105.1502,160.2546 C101.1992,162.0146 97.2582,163.8816 93.2312,165.7126 C89.1922,167.5356 85.1052,169.4016 80.5212,170.8496 C79.3662,171.2036 78.2142,171.5576 76.9582,171.8016 C76.3342,171.9246 75.7502,172.0986 75.0912,172.1736 L73.1312,172.4126 C72.4932,172.5166 71.7832,172.4826 71.1012,172.4936 C70.4062,172.4686 69.7382,172.5476 69.0242,172.4196 L66.9122,172.1226 C66.2122,172.0046 65.5262,171.7536 64.8362,171.5606 L63.8062,171.2416 C63.5022,171.1346 63.2582,171.0296 62.9802,170.9226 L61.3852,170.2756 C60.3312,169.8376 59.2912,169.3856 58.2582,168.9266 C56.1942,168.0036 54.1602,167.0376 52.1452,166.0366 C44.0992,162.0086 36.3012,157.4486 29.0052,151.8856 C25.3602,149.1056 21.8592,146.0386 18.6472,142.5376 L18.4252,142.2966 L18.3812,142.2456 L18.3312,142.1876 L18.3242,142.1786 L18.3132,142.1566 C18.3072,142.1266 18.3072,142.1646 18.3062,142.1746 L18.3072,142.1996 L18.3892,142.9196 C18.5212,143.9246 18.6732,144.9206 18.8522,145.9076 C19.5772,149.8366 20.7632,153.6086 22.5982,156.7266 C23.3732,158.0436 24.2692,159.2236 25.2692,160.2456 C25.6082,159.7496 25.8572,159.3906 25.2852,160.2626 C25.4602,160.4416 25.6332,160.6266 25.8162,160.7956 L26.0442,161.0136 L26.1572,161.1216 C16.0582,176.5356 23.2902,165.3616 21.0062,168.7866 L20.8892,168.7286 L20.0852,168.3156 L18.5392,167.4846 C17.5212,166.9216 16.5192,166.3356 15.5252,165.7316 C13.5522,164.5326 11.5612,163.1826 9.7242,161.7666 C9.7332,161.7706 9.7152,161.7576 9.7132,161.7526 C9.6982,161.7256 9.7002,161.7436 9.7002,161.7656 L9.7082,161.8376 L9.7262,162.0286 C9.7522,162.2816 9.7712,162.5376 9.8132,162.7866 C10.0832,164.7976 10.4262,166.7886 10.9012,168.7226 C11.8452,172.5856 13.2642,176.2526 15.2912,179.3336 L16.0802,180.4566 L16.4702,181.0226 C16.6082,181.2036 16.7712,181.3546 16.9192,181.5236 L17.7132,182.3976 C19.5412,180.0956 19.0292,180.7506 17.7222,182.4076 L17.8212,182.5166 L18.2672,183.0186 L18.3222,183.0816 C19.0592,182.2066 15.4312,186.7836 13.1072,189.6836 C14.8752,194.5456 17.0542,199.2466 19.6452,203.6466 L21.2842,206.2496 C21.8302,207.1176 22.4582,207.9206 23.0382,208.7606 C23.6082,209.6096 24.2542,210.3916 24.8972,211.1756 L26.9392,213.6776 C30.0112,217.4006 32.3772,221.1836 34.7922,224.8866 C39.5232,232.3066 44.1442,239.4686 49.4742,246.0526 C54.7962,252.6126 60.7152,258.6186 67.3452,263.7356 C80.5642,274.0506 96.3982,280.7446 112.9562,284.4436 C125.4122,287.1506 138.3022,288.7076 151.1582,289.3426 C157.5972,289.6886 164.0542,289.7316 170.5052,289.6076 C176.9572,289.4906 183.4072,289.1256 189.8332,288.5396 C199.4002,287.6926 208.9232,286.3556 218.3122,284.4586 C229.4512,282.2446 240.4272,279.2186 250.8582,275.1216 C256.0592,273.0566 261.1182,270.6896 265.7802,267.8736 C266.9232,267.1466 268.1152,266.4686 269.1852,265.6736 L270.8302,264.5216 L272.3742,263.2916 C273.4442,262.4986 274.3202,261.5786 275.2852,260.7216 C275.7342,260.2736 276.1322,259.8006 276.5622,259.3446 L277.1962,258.6536 L277.8052,257.8766 C282.0672,252.5206 285.2232,246.1556 287.3632,239.4226 C290.0032,231.1276 291.1942,222.2826 291.1352,213.4996 C291.0922,209.1046 290.6962,204.7216 289.9522,200.4336 C289.2212,196.1426 288.0562,191.9656 286.4642,188.0696 C285.6332,186.1516 284.7472,184.2576 283.6592,182.5676 C283.4122,182.1196 283.1042,181.7386 282.8292,181.3226" id="Fill-4" fill="#FFF101"></path>
            <path d="M128.341,33.7783 L128.34,33.7783 C128.34,33.7783 128.336,33.7773 128.341,33.7783" id="Fill-6" fill="#FFF101"></path>
            <path d="M9.6985,161.747 L9.6985,161.751 L9.6985,161.747 Z" id="Fill-8" fill="#FFF101"></path>
            <path d="M9.7009,161.7788 L9.7009,161.7768 L9.7009,161.7788 Z" id="Fill-10" fill="#FFF101"></path>
            <path d="M233.3742,80.9653 C243.5062,80.9653 251.7202,72.7513 251.7202,62.6193 C251.7202,52.4873 243.5062,44.2743 233.3742,44.2743 C223.2422,44.2743 215.0292,52.4873 215.0292,62.6193 C215.0292,72.7513 223.2422,80.9653 233.3742,80.9653" id="Fill-12" fill="#6A3416"></path>
            <path d="M311.0432,117.1118 C311.0432,117.1118 311.0482,117.1098 311.0432,117.1118" id="Fill-14" fill="#EC932D"></path>
            <path d="M278.8313,67.957 C278.9213,68.09 279.0363,68.251 279.1653,68.378 C279.3553,68.527 279.7053,68.937 280.0263,69.161 C280.3333,69.365 280.7793,69.728 281.2203,70.014 C281.2943,70.062 281.3163,70.076 281.3233,70.08 C281.3243,70.076 281.3273,70.07 281.3273,70.072 L281.3263,70.078 C281.3163,70.073 281.3313,70.083 281.3233,70.08 C281.3183,70.088 281.3123,70.102 281.3093,70.109 C281.2933,70.142 281.2753,70.173 281.2553,70.204 C281.2073,70.328 281.1553,70.407 281.0983,70.562 C280.9853,70.841 280.8633,71.173 280.7523,71.539 C280.2943,73.002 279.9323,74.748 279.6443,76.486 C279.0753,79.986 278.7473,83.652 278.7303,87.152 C278.7273,88.557 278.4623,90.188 277.9483,91.561 C277.4423,92.971 276.7103,94.161 275.9503,95.212 C274.4023,97.308 272.6953,98.775 271.0883,100.105 C269.4683,101.422 267.9043,102.561 266.4793,103.675 C265.0673,104.782 263.7733,105.873 262.8683,106.916 C262.4253,107.434 262.0373,107.936 261.8173,108.379 C261.5863,108.826 261.4603,109.21 261.3943,109.582 C261.3763,109.77 261.3513,109.959 261.3673,110.164 C261.3533,110.222 261.3773,110.447 261.3973,110.651 L261.4543,111.256 C261.4803,111.676 261.5433,112.04 261.6043,112.397 L261.6883,112.941 L261.8093,113.397 L261.9183,113.848 C261.9673,113.955 262.0123,114.063 262.0523,114.173 C262.1223,114.444 262.2253,114.497 262.2713,114.642 C262.2953,114.727 262.3363,114.688 262.3503,114.729 C262.3673,114.751 262.3673,114.804 262.3953,114.786 C262.4153,114.788 262.4233,114.8 262.4243,114.828 C262.4593,114.833 262.4993,114.839 262.5263,114.863 C262.5453,114.873 262.5473,114.892 262.5753,114.903 L262.6923,114.927 C262.7713,114.946 262.8383,114.977 262.9213,115.009 C263.1883,115.025 263.3703,115.104 263.7013,115.116 C264.3123,115.168 265.0643,115.163 265.8653,115.117 C269.1453,114.909 272.9153,114.133 276.8343,113.576 C280.7433,113.03 284.7213,112.54 289.0593,112.643 C291.2283,112.712 293.5203,112.937 295.9393,113.667 C297.1413,114.011 298.3773,114.562 299.5663,115.23 L300.4413,115.801 L300.8623,116.083 L301.0073,116.166 C301.1023,116.224 301.1933,116.285 301.2833,116.351 L301.6543,116.526 C303.7273,117.543 307.3673,117.855 310.0303,117.351 C310.3873,117.307 310.6433,117.202 310.9503,117.14 C310.9943,117.13 311.0203,117.117 311.0533,117.103 C311.0533,117.103 311.0583,117.08 311.0503,117.101 C310.9643,116.627 310.7743,116.022 310.4963,115.434 C310.2463,114.833 309.8783,114.256 309.5173,113.703 L309.2203,113.313 L309.0683,113.112 L308.5823,112.66 L307.6083,111.755 L306.1153,110.903 L305.3523,110.46 C305.1713,110.299 305.0803,110.121 304.9393,109.951 L304.1683,108.923 L303.9233,108.096 C303.8903,107.968 303.8233,107.799 303.8183,107.704 L303.8193,107.437 L303.8273,106.888 C303.8273,106.57 303.8643,106.337 303.9183,106.06 C304.0193,105.524 304.2303,104.936 304.6563,104.326 C305.0633,103.71 305.7443,103.106 306.5223,102.549 L308.8643,100.875 L310.0193,100.027 L310.8043,99.432 L311.8413,98.61 C313.2013,97.505 314.4773,96.355 315.5953,95.163 C316.7083,93.974 317.6633,92.732 318.2963,91.546 C318.6143,90.955 318.8483,90.384 318.9893,89.863 C319.0983,89.525 319.2493,88.438 319.3943,87.566 C319.6693,85.768 319.8823,83.981 320.0093,82.24 C320.1323,80.506 320.1643,78.792 320.0163,77.31 C319.9793,76.939 319.9403,76.575 319.8713,76.27 L319.7993,75.856 L319.7953,75.842 C319.7913,75.828 319.7903,75.827 319.7843,75.82 C319.7743,75.808 319.7573,75.809 319.7463,75.819 L317.9393,77.406 C317.0793,78.146 316.0963,78.922 315.0123,79.62 C313.2453,80.518 311.2753,81.183 309.3253,81.489 C307.3723,81.797 305.4493,81.8 303.6453,81.573 C302.7483,81.459 301.8533,81.292 301.0203,81.105 L298.7453,80.552 C297.2173,80.181 295.6843,79.822 294.1203,79.407 C292.5683,79 290.9753,78.544 289.4123,77.875 C287.8533,77.218 286.3563,76.287 285.1703,75.124 C283.9703,73.969 283.0463,72.651 282.2483,71.295 C282.1153,71.078 282.0033,70.851 281.8773,70.63 C281.1713,69.706 280.4313,68.648 279.6293,67.431 L278.8313,67.957 Z" id="Fill-16" fill="#EC932D"></path>
            <path d="M276.5207,69.4799 C276.5197,69.4829 276.5187,69.4859 276.5167,69.4889 C276.6857,69.3879 276.8497,69.2789 277.0077,69.1589 L276.5207,69.4799 Z" id="Fill-18" fill="#EC932D"></path>
            <path d="M278.5627,67.4116 L278.5627,67.4126 C278.5647,67.3846 278.5617,67.3596 278.5627,67.4116" id="Fill-20" fill="#EC932D"></path>
            <g id="Group-24" transform="translate(0.000000, 0.978000)">
                <mask id="mask-2" fill="white">
                    <use xlink:href="#path-1"></use>
                </mask>
                <g id="Clip-23"></g>
                <path d="M276.5207,68.5019 L277.0077,68.1809 C276.8497,68.3009 276.6857,68.4099 276.5167,68.5109 C276.5187,68.5079 276.5197,68.5049 276.5207,68.5019 Z M289.9527,199.4549 C290.6967,203.7429 291.0917,208.1269 291.1347,212.5219 C291.1947,221.3049 290.0027,230.1489 287.3637,238.4439 C285.2227,245.1779 282.0677,251.5429 277.8047,256.8979 L277.1967,257.6759 L276.5617,258.3659 C276.1317,258.8219 275.7347,259.2959 275.2857,259.7429 C274.3207,260.6009 273.4447,261.5209 272.3747,262.3139 L270.8307,263.5439 L269.1847,264.6949 C268.1157,265.4899 266.9227,266.1689 265.7807,266.8959 C261.1187,269.7119 256.0587,272.0779 250.8587,274.1439 C240.4267,278.2399 229.4517,281.2669 218.3127,283.4809 C208.9227,285.3779 199.4007,286.7149 189.8327,287.5619 C183.4077,288.1479 176.9577,288.5129 170.5047,288.6299 C164.0537,288.7539 157.5967,288.7109 151.1587,288.3639 C138.3017,287.7299 125.4127,286.1729 112.9567,283.4659 C96.3987,279.7669 80.5647,273.0719 67.3447,262.7579 C60.7147,257.6409 54.7957,251.6349 49.4737,245.0739 C44.1437,238.4899 39.5237,231.3279 34.7917,223.9079 C32.3767,220.2049 30.0107,216.4229 26.9397,212.6989 L24.8977,210.1969 C24.2537,209.4139 23.6087,208.6319 23.0377,207.7819 C22.4577,206.9419 21.8307,206.1399 21.2847,205.2719 L19.6457,202.6689 C17.0537,198.2689 14.8747,193.5669 13.1067,188.7049 C15.4317,185.8059 19.0597,181.2289 18.3227,182.1039 L18.2677,182.0409 L17.8217,181.5389 L17.7217,181.4289 C19.0297,179.7729 19.5417,179.1169 17.7137,181.4199 L16.9187,180.5449 C16.7707,180.3769 16.6077,180.2249 16.4707,180.0439 L16.0807,179.4789 L15.2917,178.3559 C13.2647,175.2739 11.8457,171.6069 10.9017,167.7449 C10.4267,165.8109 10.0837,163.8199 9.8137,161.8079 C9.7707,161.5589 9.7527,161.3039 9.7267,161.0499 L9.7077,160.8599 L9.7007,160.7879 C9.6997,160.7659 9.6987,160.7479 9.7127,160.7749 C9.7147,160.7799 9.7327,160.7929 9.7247,160.7879 C11.5607,162.2039 13.5527,163.5539 15.5247,164.7529 C16.5197,165.3569 17.5217,165.9429 18.5397,166.5069 L20.0857,167.3379 L20.8897,167.7509 L21.0057,167.8089 C23.2907,164.3829 16.0587,175.5569 26.1577,160.1439 L26.0437,160.0349 L25.8167,159.8179 C25.6337,159.6489 25.4607,159.4639 25.2847,159.2839 C25.8577,158.4129 25.6087,158.7719 25.2687,159.2679 C24.2697,158.2459 23.3737,157.0659 22.5987,155.7489 C20.7637,152.6299 19.5777,148.8589 18.8517,144.9289 C18.6737,143.9429 18.5207,142.9459 18.3897,141.9419 L18.3067,141.2209 L18.3067,141.1969 C18.3077,141.1869 18.3067,141.1489 18.3127,141.1789 L18.3247,141.1999 L18.3317,141.2099 L18.3807,141.2679 L18.4247,141.3189 L18.6477,141.5589 C21.8597,145.0609 25.3597,148.1279 29.0047,150.9069 C36.3007,156.4699 44.0987,161.0309 52.1447,165.0589 C54.1607,166.0599 56.1947,167.0259 58.2577,167.9479 C59.2917,168.4079 60.3317,168.8589 61.3847,169.2969 L62.9807,169.9449 C63.2577,170.0509 63.5017,170.1559 63.8057,170.2629 L64.8357,170.5829 C65.5267,170.7749 66.2117,171.0259 66.9127,171.1449 L69.0247,171.4409 C69.7387,171.5699 70.4067,171.4909 71.1007,171.5159 C71.7837,171.5039 72.4937,171.5389 73.1307,171.4339 L75.0907,171.1959 C75.7497,171.1199 76.3337,170.9469 76.9587,170.8239 C78.2137,170.5799 79.3667,170.2249 80.5207,169.8719 C85.1057,168.4229 89.1927,166.5569 93.2317,164.7349 C97.2577,162.9029 101.1997,161.0369 105.1507,159.2759 C109.1017,157.5059 113.0597,155.8029 117.0587,154.2239 L120.0587,153.0439 C121.0457,152.6569 121.9707,152.3329 122.9437,152.0049 C124.8747,151.3709 126.8447,150.8299 128.8427,150.3739 C133.5887,149.2969 138.4917,148.7179 143.4477,148.5129 C145.9267,148.4129 148.4207,148.3999 150.9257,148.4689 C152.1787,148.5019 153.4347,148.5539 154.6937,148.6209 L157.1727,148.7749 L161.0707,149.0759 C163.6577,149.2849 166.3647,149.5719 168.7357,149.6169 C169.9407,149.6529 170.9137,149.5489 171.7427,149.3879 C172.5117,149.2009 173.1067,148.9499 173.5787,148.6819 C174.4777,148.1099 174.9817,147.5919 175.4217,146.8479 C175.5387,146.6519 175.6507,146.4369 175.7937,146.0659 C175.9497,145.6659 176.0357,145.2959 176.0717,145.0369 C176.1117,144.7659 176.1377,144.5229 176.1357,144.2879 C176.1577,144.1669 176.1077,144.0569 176.0527,143.9469 L175.9067,143.6159 C174.7207,141.7229 175.9627,140.6009 169.9127,137.1609 L163.2747,132.7619 L159.7607,130.0799 C149.5177,121.9869 141.7497,111.0889 138.5067,98.6829 C138.0627,97.2129 137.8087,95.6939 137.4767,94.1939 C137.2527,92.6719 136.9557,91.1609 136.8397,89.6199 C136.4977,86.5549 136.4237,83.4499 136.5597,80.3499 C136.6897,77.2489 137.0277,74.1459 137.5747,71.0789 C137.8527,69.5459 138.1667,68.0189 138.5457,66.5119 C138.7267,65.7549 138.9297,65.0069 139.1427,64.2629 C139.2497,63.8659 139.3427,63.5669 139.4857,63.1049 C139.7207,62.3179 139.9797,61.5269 140.2897,60.7309 C140.8517,59.1549 141.5497,57.5299 142.2317,55.9049 L142.7387,54.6929 L142.9897,54.0949 C143.0057,54.0469 143.0407,53.9909 143.0417,53.9519 L142.8837,53.9179 L142.5677,53.8509 L140.0407,53.3119 C138.3617,52.9719 136.6487,52.5139 134.9547,52.1209 C134.7367,52.0749 134.5417,52.0079 134.3397,51.9469 C134.2877,51.9309 134.2627,51.9269 134.1157,51.8599 L133.9837,51.8049 L133.8707,51.7559 L133.4137,51.5629 C133.1097,51.4309 132.7987,51.3239 132.5057,51.1519 C131.9097,50.8409 131.3067,50.5439 130.7327,50.1589 C130.4447,49.9739 130.1437,49.8149 129.8667,49.5999 L129.7837,49.5399 C129.7797,49.5359 129.7767,49.5319 129.7847,49.5339 L140.9557,49.5339 L147.8837,49.5329 L149.6207,49.5319 L150.1887,49.5319 L150.6467,49.5319 L150.8747,49.5319 C150.9157,49.5199 150.7407,49.4399 150.6837,49.3969 L148.6587,48.1589 L140.7667,43.3349 L136.9527,41.0039 L134.3667,39.0929 L133.0777,38.1389 L132.4327,37.6619 L132.1107,37.4239 L131.9207,37.2089 L130.4197,35.4889 L129.6697,34.6289 C129.5607,34.5019 129.3827,34.3089 129.3317,34.2329 L129.1747,34.0099 L128.5507,33.1169 L128.3317,32.8049 C128.3257,32.7939 128.3327,32.7969 128.3387,32.8009 L129.5377,33.1799 C130.4587,33.4489 131.4047,33.6929 132.3797,33.8819 C134.3147,34.2919 136.4167,34.4369 138.5087,34.3189 C140.6067,34.1979 142.6927,33.7559 144.6007,33.1069 C146.5097,32.4519 148.2327,31.6169 149.8417,30.7539 C153.0627,29.0099 155.8237,27.1449 158.6107,25.4189 C161.3777,23.6859 164.1197,22.0499 166.9287,20.5519 C178.1837,14.5149 190.3377,10.6999 202.8577,10.3379 C215.3417,9.9839 227.8517,12.9719 239.1327,18.5609 L241.2517,19.6029 L243.3127,20.7659 L245.3727,21.9289 C246.0537,22.3259 246.7067,22.7739 247.3747,23.1939 C248.7067,24.0439 250.0477,24.8779 251.3107,25.8339 C252.5797,26.7579 253.9417,27.6779 255.0197,28.6099 C259.5677,32.3669 263.2667,37.2909 266.1867,42.7299 C269.1127,48.1779 271.2937,54.1359 272.9197,60.2649 C273.2197,61.3889 273.4777,62.5259 273.7377,63.6619 C273.6657,63.7649 273.6027,63.8599 273.5367,63.9599 C272.9947,64.7919 272.7237,65.4199 272.4667,66.0339 C272.2187,66.6409 272.0197,67.2099 271.8497,67.7569 C271.1717,69.9469 270.7787,71.9599 270.4367,73.9909 C269.7847,78.0379 269.4247,82.0129 269.4017,86.1599 C269.3807,86.6669 269.3327,86.9409 269.1917,87.3659 C269.0607,87.7629 268.7837,88.2219 268.4277,88.7159 C267.7117,89.7119 266.5317,90.8079 265.1917,91.8989 C263.8467,92.9969 262.3197,94.1129 260.7327,95.3519 C259.1457,96.6089 257.4687,97.9589 255.8507,99.7969 C255.0507,100.7269 254.2537,101.7459 253.5937,103.0049 C252.9317,104.2489 252.4127,105.6869 252.1747,107.2059 C252.0707,107.9679 252.0137,108.7309 252.0477,109.4839 C252.0487,109.9049 252.0797,110.1559 252.1047,110.4269 L252.1817,111.2499 C252.2197,111.7849 252.3077,112.3649 252.4077,112.9509 L252.5527,113.8219 L252.7837,114.7569 L253.0337,115.6949 L253.4167,116.7079 C253.6337,117.3569 254.0727,118.1029 254.4877,118.7939 C254.6807,119.1389 255.0137,119.4979 255.2887,119.8369 C255.5817,120.1779 255.8627,120.5189 256.2367,120.8059 C256.5907,121.1029 256.9587,121.3879 257.3317,121.6589 C257.6927,121.8769 258.0657,122.0699 258.4417,122.2609 C257.4567,123.5019 256.4547,124.7379 255.4077,125.9779 L253.1637,128.6419 C252.8727,129.0169 252.5457,129.4759 252.2627,129.9049 C251.9807,130.3479 251.7677,130.8479 251.5427,131.3309 C251.1497,132.3079 250.8927,133.3439 250.8117,134.3089 C250.6297,136.2559 250.9197,137.9669 251.3277,139.4539 C251.7627,140.9079 252.2877,142.2659 252.8947,143.4609 C254.0887,145.9039 255.4667,148.0179 256.8927,150.0359 C258.3217,152.0489 259.8107,153.9509 261.3267,155.7969 C264.3597,159.4849 267.4897,162.9829 270.6117,166.4329 C273.7337,169.8819 276.8507,173.2809 279.8737,176.7059 L280.9987,177.9919 C281.3977,178.4369 281.6277,178.7699 281.9547,179.1619 C282.2677,179.5259 282.5527,179.9289 282.8297,180.3449 C283.1047,180.7599 283.4127,181.1409 283.6597,181.5889 C284.7477,183.2789 285.6327,185.1739 286.4637,187.0919 C288.0557,190.9869 289.2207,195.1649 289.9527,199.4549 Z M279.6287,66.4529 C280.4307,67.6699 281.1707,68.7279 281.8767,69.6519 C282.0027,69.8729 282.1157,70.0999 282.2487,70.3169 C283.0457,71.6729 283.9697,72.9909 285.1697,74.1459 C286.3567,75.3089 287.8537,76.2399 289.4127,76.8969 C290.9747,77.5659 292.5687,78.0219 294.1207,78.4289 C295.6837,78.8439 297.2167,79.2029 298.7457,79.5739 L301.0207,80.1269 C301.8537,80.3149 302.7487,80.4809 303.6457,80.5949 C305.4497,80.8219 307.3727,80.8189 309.3257,80.5109 C311.2757,80.2049 313.2457,79.5399 315.0117,78.6419 C316.0957,77.9439 317.0797,77.1689 317.9397,76.4279 L319.7467,74.8409 C319.7567,74.8309 319.7747,74.8299 319.7847,74.8419 C319.7907,74.8489 319.7917,74.8499 319.7947,74.8639 L319.7987,74.8779 L319.8717,75.2919 C319.9407,75.5969 319.9797,75.9609 320.0157,76.3319 C320.1647,77.8149 320.1317,79.5279 320.0087,81.2619 C319.8817,83.0029 319.6687,84.7899 319.3937,86.5879 C319.2497,87.4599 319.0977,88.5469 318.9897,88.8849 C318.8477,89.4059 318.6147,89.9769 318.2957,90.5679 C317.6637,91.7539 316.7087,92.9959 315.5947,94.1849 C314.4777,95.3769 313.2017,96.5269 311.8407,97.6319 L310.8037,98.4539 L310.0197,99.0489 L308.8647,99.8979 L306.5227,101.5709 C305.7447,102.1279 305.0637,102.7319 304.6567,103.3479 C304.2307,103.9589 304.0197,104.5459 303.9177,105.0819 C303.8647,105.3589 303.8277,105.5919 303.8277,105.9099 L303.8197,106.4599 L303.8187,106.7259 C303.8237,106.8209 303.8897,106.9899 303.9227,107.1179 L304.1677,107.9449 L304.9397,108.9729 C305.0807,109.1429 305.1707,109.3209 305.3517,109.4819 L306.1157,109.9249 L307.6087,110.7769 L308.5827,111.6819 L309.0687,112.1339 L309.2197,112.3349 L309.5167,112.7249 C309.8777,113.2779 310.2467,113.8559 310.4967,114.4559 C310.7747,115.0439 310.9637,115.6489 311.0497,116.1229 C311.0577,116.1019 311.0527,116.1249 311.0527,116.1249 C311.0207,116.1389 310.9947,116.1519 310.9507,116.1619 C310.6437,116.2239 310.3867,116.3289 310.0307,116.3729 C307.3677,116.8769 303.7267,116.5649 301.6547,115.5479 L301.2837,115.3729 C301.1937,115.3069 301.1017,115.2459 301.0067,115.1889 L300.8627,115.1059 L300.4417,114.8229 L299.5667,114.2519 C298.3767,113.5849 297.1407,113.0329 295.9397,112.6899 C293.5207,111.9599 291.2287,111.7339 289.0587,111.6649 C284.7207,111.5629 280.7437,112.0519 276.8337,112.5979 C272.9157,113.1549 269.1457,113.9309 265.8657,114.1389 C265.0647,114.1849 264.3127,114.1899 263.7017,114.1379 C263.3707,114.1259 263.1887,114.0469 262.9207,114.0309 C262.8377,113.9989 262.7717,113.9679 262.6927,113.9489 L262.5757,113.9249 C262.5467,113.9139 262.5447,113.8949 262.5267,113.8849 C262.4997,113.8609 262.4587,113.8559 262.4237,113.8499 C262.4227,113.8219 262.4157,113.8099 262.3957,113.8079 C262.3677,113.8259 262.3677,113.7729 262.3497,113.7509 C262.3357,113.7099 262.2947,113.7489 262.2717,113.6639 C262.2247,113.5189 262.1227,113.4659 262.0517,113.1949 C262.0117,113.0849 261.9667,112.9769 261.9177,112.8699 L261.8087,112.4189 L261.6887,111.9629 L261.6047,111.4189 C261.5427,111.0619 261.4807,110.6979 261.4547,110.2779 L261.3977,109.6729 C261.3767,109.4689 261.3537,109.2439 261.3677,109.1859 C261.3507,108.9809 261.3757,108.7919 261.3937,108.6039 C261.4597,108.2319 261.5857,107.8479 261.8177,107.4009 C262.0377,106.9579 262.4247,106.4559 262.8687,105.9379 C263.7737,104.8949 265.0677,103.8039 266.4797,102.6969 C267.9047,101.5829 269.4677,100.4439 271.0877,99.1269 C272.6957,97.7969 274.4027,96.3299 275.9507,94.2339 C276.7097,93.1829 277.4427,91.9929 277.9487,90.5829 C278.4617,89.2099 278.7277,87.5789 278.7307,86.1739 C278.7477,82.6739 279.0757,79.0079 279.6447,75.5079 C279.9317,73.7699 280.2937,72.0239 280.7517,70.5609 C280.8637,70.1949 280.9857,69.8629 281.0977,69.5849 C281.1557,69.4289 281.2077,69.3499 281.2547,69.2259 C281.2757,69.1949 281.2927,69.1639 281.3087,69.1309 C281.3127,69.1239 281.3187,69.1099 281.3237,69.1019 C281.3167,69.0979 281.2937,69.0849 281.2197,69.0359 C280.7797,68.7509 280.3337,68.3869 280.0267,68.1829 C279.7057,67.9599 279.3557,67.5489 279.1657,67.3999 C279.0367,67.2729 278.9207,67.1119 278.8317,66.9789 L279.6287,66.4529 Z M329.0147,73.5889 L328.9277,73.1259 C328.8907,72.9579 328.8907,72.8559 328.8007,72.5979 L328.3757,71.2459 C328.2607,70.7819 328.0497,70.3669 327.8337,69.9539 C327.6127,69.5459 327.4377,69.1009 327.1807,68.7229 C326.9167,68.3519 326.6387,67.9889 326.3517,67.6379 C326.0657,67.2889 325.6957,67.0319 325.3717,66.7249 C325.0557,66.3989 324.6657,66.1889 324.2757,65.9759 C323.8927,65.7509 323.5107,65.5259 323.0827,65.3979 C322.6617,65.2649 322.2627,65.0429 321.8227,64.9829 C321.3857,64.8959 320.9447,64.8579 320.5027,64.8239 C318.7257,64.7789 316.9777,65.3659 315.4237,66.4419 C315.0367,66.6829 314.6797,66.9849 314.3117,67.2669 L313.9907,67.5269 L313.7527,67.7299 L313.2097,68.2049 L312.3067,69.0059 C311.7407,69.5049 311.2227,69.9369 310.7147,70.3129 C309.8237,71.1989 308.9307,71.8839 307.9027,72.4419 C306.8707,72.9739 305.7117,73.3909 304.4167,73.6059 C303.1167,73.8409 301.8027,73.8739 300.0837,73.8699 L295.2877,73.8919 C292.1367,73.8439 289.2167,73.7889 286.7677,72.4449 C286.0127,72.0509 285.2937,71.5229 284.5967,70.9339 C284.4557,69.9609 284.3037,68.9899 284.1397,68.0209 C283.9107,66.6709 283.6507,65.3259 283.3747,63.9849 L283.5267,63.8849 C283.4517,63.7769 283.3687,63.6759 283.2907,63.5699 C282.8897,61.6649 282.4467,59.7659 281.9437,57.8789 C280.1637,51.1799 277.7667,44.5719 274.4077,38.3109 C271.0537,32.0719 266.6737,26.1389 260.9657,21.4169 C259.5197,20.1869 258.1217,19.2519 256.7077,18.2199 C255.3167,17.1749 253.8397,16.2499 252.3737,15.3129 C251.6357,14.8499 250.9157,14.3599 250.1637,13.9199 L247.8877,12.6319 L245.6087,11.3499 L243.2597,10.1909 C230.7647,3.9959 216.6957,0.6049 202.5847,1.0109 C188.4707,1.3889 174.6317,5.8039 162.5347,12.3229 C159.4817,13.9489 156.5187,15.7209 153.6587,17.5129 C150.8047,19.2869 148.0427,21.1289 145.4167,22.5419 C144.1027,23.2479 142.8227,23.8559 141.5877,24.2769 C140.3527,24.6929 139.1607,24.9359 137.9447,25.0079 C136.7267,25.0679 135.4837,25.0119 134.1697,24.7269 C133.5177,24.6019 132.8517,24.4289 132.1807,24.2339 L131.0227,23.8679 C130.2017,23.5779 129.4427,23.2079 128.6497,22.8809 C127.8557,22.5229 127.0977,22.2579 126.2757,21.8219 L123.8067,20.5119 L122.5737,19.8569 C122.1617,19.6379 121.7077,19.3639 121.2767,19.1209 L118.6577,17.6159 L113.4367,14.6179 L112.1327,13.8689 L111.5177,13.5159 L111.3647,13.4279 C111.3337,13.4179 111.3707,13.4789 111.3707,13.5009 L111.4207,13.6889 L111.8257,15.1899 L113.7827,22.4399 C114.3797,24.8359 115.2497,27.4619 116.4177,30.2319 C116.6977,30.9169 117.0837,31.6399 117.4107,32.3419 C117.7727,33.0499 118.0457,33.7569 118.4817,34.4639 L119.7287,36.5869 L120.3527,37.6479 C120.4687,37.8439 120.5467,37.9409 120.6407,38.0799 L120.8407,38.3669 L121.6457,39.5139 L121.9137,39.8889 L121.9917,39.9869 L122.1667,40.2069 L120.9397,40.2069 L119.6937,40.2069 L119.0717,40.2069 C118.9707,40.2089 118.8557,40.2029 118.7677,40.2099 L118.5527,40.2509 L116.8267,40.5749 L113.3747,41.2229 L111.6487,41.5469 L111.2167,41.6279 C111.1707,41.6289 111.1417,41.6399 111.1877,41.6879 L111.2587,41.7989 L111.3987,42.0149 L111.9417,42.8599 C113.4017,45.0729 114.5747,47.1039 116.2387,49.3199 C117.9267,51.5339 120.1767,53.7759 122.6687,55.8639 C122.9847,56.1209 123.3007,56.3779 123.6667,56.6289 L124.5857,57.2879 C124.9697,57.5769 125.3997,57.8189 125.8097,58.0799 C126.6237,58.6129 127.5027,59.0659 128.3817,59.5179 L130.5407,60.4669 L130.5387,60.4719 C130.4367,60.8029 130.2847,61.2959 130.1747,61.7019 C129.9317,62.5539 129.7007,63.4079 129.4947,64.2669 C129.0637,65.9799 128.7077,67.7069 128.3937,69.4409 C127.7757,72.9129 127.3907,76.4269 127.2437,79.9599 C127.0887,83.4919 127.1727,87.0479 127.5647,90.5849 C127.7047,92.3569 128.0367,94.1129 128.3037,95.8729 C128.6807,97.6169 128.9897,99.3759 129.4997,101.0909 C131.3767,108.3059 134.6287,115.1569 138.8287,121.2839 C143.0117,127.4379 148.2217,132.7859 153.9247,137.3509 L156.6057,139.3949 L155.1947,139.3129 C153.8587,139.2409 152.5177,139.1859 151.1727,139.1499 C148.4837,139.0769 145.7767,139.0889 143.0637,139.1989 C137.6377,139.4239 132.1727,140.0599 126.7797,141.2829 C124.5077,141.8009 122.2497,142.4209 120.0207,143.1539 C118.9177,143.5229 117.7777,143.9269 116.7257,144.3379 L113.6137,145.5629 C109.4667,147.2009 105.3777,148.9609 101.3377,150.7719 C97.2897,152.5759 93.3147,154.4579 89.3697,156.2519 C85.4347,158.0359 81.5217,159.7909 77.7497,160.9729 C76.8097,161.2609 75.8697,161.5539 74.9717,161.7179 C74.5227,161.8039 74.0527,161.9539 73.6227,161.9919 L72.3237,162.1489 C70.6307,162.2509 69.0587,162.2269 67.6567,161.6999 L67.1137,161.5499 C66.9007,161.4779 66.6407,161.3679 66.4077,161.2779 L64.9597,160.6909 C63.9927,160.2889 63.0237,159.8679 62.0567,159.4389 C60.1237,158.5739 58.2007,157.6609 56.2947,156.7139 C48.6867,152.9109 41.3037,148.5739 34.6687,143.5079 C31.3507,140.9809 28.2497,138.2429 25.5407,135.2899 C25.4427,135.2119 24.9997,134.6459 24.6887,134.2659 L23.6817,133.0219 L22.6727,131.7769 C22.3397,131.3099 22.0127,130.7059 21.6817,130.1769 L20.6927,128.5369 L20.1977,127.7169 L19.9507,127.3069 C19.9097,127.2469 19.8697,127.1909 19.8157,126.9709 L19.6667,126.4409 L17.2697,117.9539 L16.6537,115.7579 L15.4907,111.0109 L13.1647,101.5179 L12.5827,99.1439 C12.4587,98.5219 12.4297,98.6979 12.4127,98.9749 L12.3337,99.5619 L12.0147,101.9109 L11.6617,104.5189 L10.8077,110.8219 L10.1607,115.5969 L9.5017,120.4599 L9.1777,122.9019 L9.0207,124.1469 L8.8987,125.4749 C8.5867,129.0289 8.4507,133.0439 8.6537,137.3259 L8.8767,140.5619 C8.9187,141.1039 8.9747,141.6479 9.0407,142.1919 L9.1457,143.1119 C9.2987,144.2789 9.4777,145.4469 9.6887,146.6159 C9.7067,146.7099 9.7277,146.8039 9.7457,146.8979 L8.7417,144.9029 L8.0097,143.4469 L7.6427,142.7189 C7.5157,142.4619 7.4337,142.3269 7.1787,141.7259 L2.0207,129.8869 C1.8867,129.5179 1.9537,130.0929 1.9107,130.1499 L1.8607,130.6699 L1.8037,131.2709 L1.6887,132.4719 L1.4587,134.8759 L1.2177,137.3999 L0.9427,140.2839 L0.4297,145.6629 L0.1797,148.3579 L0.0567,151.2819 L-0.0003,152.7509 L0.0357,154.3249 L0.1057,157.4729 C0.1537,158.5379 0.2087,159.6029 0.3337,160.7259 L0.4707,162.0989 C0.5007,162.3899 0.5237,162.6809 0.5717,162.9719 C0.8817,165.3009 1.2827,167.6309 1.8517,169.9509 C2.2407,171.5329 2.7057,173.1159 3.2517,174.6859 C2.3167,175.0519 1.2637,175.4649 0.0417,175.9439 L0.0627,176.0769 L0.1037,176.3279 L0.1827,176.7779 L0.4207,178.0119 C-0.1703,178.2489 0.0287,178.1819 0.4257,178.0389 L0.5187,178.5219 C0.7557,179.6619 1.0187,180.7879 1.2927,181.9069 C3.5477,190.8159 6.9267,199.4159 11.6447,207.4349 L13.5047,210.3909 C14.1267,211.3749 14.8437,212.3069 15.5107,213.2659 C16.1667,214.2319 16.9107,215.1439 17.6567,216.0529 L19.7687,218.6399 C22.2827,221.6679 24.6037,225.3149 26.9607,228.9449 C31.6427,236.2859 36.5267,243.8809 42.2287,250.9219 C47.9337,257.9609 54.3887,264.5199 61.6337,270.1099 C65.2577,272.8939 69.0117,275.5269 72.9607,277.8239 L74.4287,278.7069 L75.9307,279.5279 L78.9397,281.1599 C80.9947,282.1439 83.0077,283.2269 85.1097,284.0989 C93.4347,287.7839 102.1037,290.5989 110.9127,292.5479 C124.1037,295.4119 137.3557,296.9949 150.7007,297.6599 C157.3647,298.0179 164.0367,298.0639 170.7017,297.9349 C177.3667,297.8129 184.0257,297.4359 190.6657,296.8309 C200.5477,295.9549 210.3927,294.5739 220.1447,292.6039 C231.7137,290.2999 243.1657,287.1599 254.2977,282.7889 C259.8557,280.5779 265.3317,278.0319 270.5877,274.8609 C271.8907,274.0369 273.2157,273.2739 274.4787,272.3469 L276.3897,271.0039 L278.2447,269.5309 C279.4997,268.5889 280.6517,267.4269 281.8377,266.3479 C282.4147,265.7739 282.9597,265.1459 283.5187,264.5429 L284.3467,263.6279 L285.0807,262.6969 C290.2037,256.2529 293.8027,248.8749 296.2247,241.2749 C298.9727,232.6619 300.2917,223.7239 300.4267,214.7799 C300.5247,205.8369 299.5057,196.8339 296.7287,188.0819 C295.9947,185.9019 295.2197,183.7269 294.2037,181.6049 C293.7467,180.5319 293.1457,179.4949 292.6107,178.4429 C291.9837,177.4169 291.4257,176.3689 290.7027,175.3769 C290.3487,174.8789 290.0267,174.3699 289.6417,173.8839 L288.4787,172.4359 C287.7287,171.5449 287.0457,170.7799 286.3217,169.9599 L282.0197,165.1659 C276.3087,158.8339 270.4827,152.6459 265.5957,146.1859 C264.3917,144.5729 263.2607,142.9429 262.3037,141.3239 C261.3637,139.7239 260.5437,138.0619 260.2357,136.7399 C260.0397,136.0629 260.0377,135.5419 260.0657,135.2259 C260.1157,134.8999 260.1207,134.8239 260.2667,134.6619 L264.2877,129.8379 C265.6757,128.1489 267.0377,126.4019 268.3597,124.6209 C268.7237,124.1409 269.0747,123.6479 269.4217,123.1509 C272.5447,122.7699 275.3817,122.2039 278.1667,121.8209 C281.8217,121.3009 285.4707,120.8909 288.7827,120.9779 C290.4277,121.0219 291.9697,121.2159 293.2117,121.5969 C293.8527,121.7699 294.3577,122.0309 294.8407,122.2789 L295.1627,122.4969 L295.3397,122.6069 L295.7997,122.9119 L296.7327,123.5009 L297.6497,123.9579 C300.1017,125.1029 302.4327,125.5779 304.7407,125.8039 C307.0547,126.0109 309.3337,125.9649 311.7647,125.5229 C312.3577,125.4339 313.0127,125.2379 313.6367,125.0769 C313.7947,125.0369 313.9637,124.9679 314.1417,124.9079 L314.8787,124.6349 C315.3757,124.4569 315.7507,124.2329 316.1717,124.0009 C317.0247,123.5689 317.6917,122.9259 318.3567,122.2869 L318.8137,121.7649 C318.9637,121.5889 319.1347,121.4279 319.2177,121.2079 C319.4117,120.7899 319.6647,120.3969 319.8087,119.9579 C320.5357,118.2519 320.5477,116.2919 320.1997,114.3999 C319.9317,112.9939 319.5067,111.7709 318.9817,110.6249 C318.4767,109.4639 317.8317,108.4079 317.1327,107.3719 L316.5647,106.6159 L316.2817,106.2469 L316.2357,106.1949 L316.1417,106.0889 L317.7077,104.8569 C319.3137,103.5499 320.8917,102.1409 322.3907,100.5409 C323.8827,98.9369 325.3197,97.1479 326.4997,94.9579 C327.0857,93.8639 327.6017,92.6609 327.9647,91.3339 C328.1417,90.7069 328.2947,89.8669 328.3537,89.4679 L328.5907,87.9879 C328.8927,86.0069 329.1367,83.9939 329.2877,81.9209 C329.4287,79.8419 329.4967,77.7169 329.2687,75.3899 C329.2107,74.8089 329.1437,74.2219 329.0147,73.5889 Z" id="Fill-22" fill="#6A3416" mask="url(#mask-2)"></path>
            </g>
            <path d="M281.3264,70.0781 L281.3274,70.0721 C281.3274,70.0701 281.3244,70.0761 281.3234,70.0791 C281.3314,70.0831 281.3164,70.0731 281.3264,70.0781" id="Fill-25" fill="#675E50"></path>
            <path d="M213.2893,180.8764 C211.2533,180.7594 209.2283,180.8864 207.2273,181.1954 C203.6973,181.7234 200.2263,182.8894 196.7813,184.2814 C195.4863,184.6454 194.1853,185.0514 192.8813,185.4744 L190.7063,186.2124 L187.4723,187.3784 C185.3123,188.1724 183.1413,189.0134 180.9603,189.8574 C176.5973,191.5524 172.1913,193.2804 167.7303,194.9264 C165.4793,195.7384 163.2913,196.5654 160.9593,197.3114 L157.3843,198.3884 C156.1913,198.7404 155.0073,199.1334 153.7833,199.3554 L150.1403,200.1364 C149.5303,200.2574 148.9273,200.4144 148.3133,200.5034 L146.4723,200.7574 L142.7863,201.2584 C141.5583,201.4144 140.3193,201.4444 139.0873,201.5424 L139.0863,201.5424 C130.0623,202.1224 121.0123,201.4594 112.2353,199.6194 C110.0313,199.2014 107.8593,198.6354 105.6843,198.0894 L104.2793,197.6844 L104.9653,198.5494 C106.2543,200.0824 107.6603,201.5674 109.1523,203.0044 C112.1663,205.8604 115.4863,208.5204 118.9643,211.0084 C124.1333,214.7044 129.6493,218.0684 135.2833,221.0944 L137.3863,222.1894 L137.6403,222.3164 L137.6973,222.3464 C137.1723,226.2714 138.9473,213.5974 136.5333,231.1524 L136.3423,231.1774 L135.5743,231.2704 L134.0393,231.4424 C133.8643,231.4534 133.6933,231.4554 133.5193,231.4644 C133.5063,231.5414 133.5053,231.5324 133.5123,231.4644 C131.7013,231.5504 129.9513,231.4974 128.2803,231.3124 C126.5833,231.1334 124.9373,230.8624 123.3233,230.5404 C124.1583,231.0604 124.9893,231.5854 125.8323,232.0924 L126.9323,232.7414 C127.4353,230.8404 127.3223,231.3034 126.9503,232.7534 L127.9053,233.3174 L128.9323,233.9084 L129.0523,233.9774 C129.5883,232.0924 124.7343,250.5394 126.7413,242.7284 L126.6533,242.7264 L126.3013,242.7184 L125.5973,242.7004 C124.6513,242.6854 123.7523,242.6024 122.8423,242.5294 L121.4973,242.3894 L120.5703,242.2704 L120.5673,242.2694 L120.8243,242.4824 C121.9673,243.4964 123.2453,244.3664 124.4603,245.3064 L126.3803,246.6024 C127.0123,247.0454 127.6653,247.4604 128.3363,247.8514 C130.9503,249.5164 133.7563,250.9024 136.5663,252.2614 C139.4323,253.5224 142.3223,254.7474 145.3193,255.7194 C151.2723,257.7644 157.4673,259.1684 163.7253,260.0634 C169.9843,260.9754 176.3313,261.2614 182.6323,261.0124 C188.9363,260.7834 195.1853,259.8574 201.2323,258.3374 C204.2393,257.5304 207.2203,256.6264 210.0703,255.4474 C211.5213,254.9094 212.8973,254.2304 214.2973,253.5954 C214.9913,253.2714 215.6393,252.8904 216.3123,252.5424 C216.9853,252.1934 217.6523,251.8364 218.2803,251.4244 C220.8923,249.9114 223.2623,248.0734 225.4613,246.0874 C226.5773,245.1044 227.5683,244.0094 228.5783,242.9294 L229.9763,241.2154 C230.4463,240.6474 230.8383,240.0224 231.2763,239.4304 C234.6153,234.5844 236.8313,228.9764 237.7383,223.1044 C238.6403,217.2394 238.3013,211.1334 236.7363,205.4274 C235.2033,199.7464 232.2963,194.3754 228.3163,190.8834 L231.0193,187.7304 C227.3403,185.2514 223.4473,183.1294 219.3893,181.9654 C217.3653,181.3784 215.3223,181.0084 213.2893,180.8764" id="Fill-27" fill="#FFF101"></path>
            <path d="M241.5695,192.7417 C239.7205,189.4967 237.3895,186.4147 234.3915,183.7967 L231.0195,187.7307 L228.3165,190.8837 C232.2965,194.3757 235.2035,199.7467 236.7365,205.4277 C238.3005,211.1337 238.6395,217.2397 237.7385,223.1037 C236.8315,228.9757 234.6155,234.5847 231.2765,239.4297 C230.8385,240.0217 230.4465,240.6477 229.9755,241.2157 L228.5785,242.9297 C227.5685,244.0097 226.5775,245.1037 225.4615,246.0877 C223.2615,248.0737 220.8915,249.9117 218.2805,251.4247 C217.6525,251.8367 216.9855,252.1937 216.3125,252.5427 C215.6385,252.8897 214.9915,253.2707 214.2975,253.5957 C212.8975,254.2297 211.5215,254.9097 210.0705,255.4477 C207.2195,256.6267 204.2395,257.5307 201.2325,258.3377 C195.1855,259.8577 188.9365,260.7837 182.6315,261.0127 C176.3315,261.2617 169.9845,260.9747 163.7245,260.0627 C157.4665,259.1687 151.2725,257.7637 145.3195,255.7197 C142.3225,254.7477 139.4315,253.5227 136.5665,252.2617 C133.7565,250.9027 130.9505,249.5157 128.3365,247.8507 C127.6655,247.4607 127.0115,247.0457 126.3805,246.6017 L124.4605,245.3057 C123.2455,244.3667 121.9665,243.4967 120.8245,242.4827 L120.5675,242.2687 L120.5705,242.2697 L121.4975,242.3887 L122.8415,242.5297 C123.7525,242.6017 124.6515,242.6847 125.5965,242.7007 L126.3005,242.7187 L126.6535,242.7257 L126.7415,242.7277 C124.7345,250.5397 129.5885,232.0927 129.0515,233.9767 L128.9315,233.9087 L127.9055,233.3177 L126.9505,232.7537 C127.3225,231.3037 127.4355,230.8407 126.9315,232.7417 L125.8325,232.0927 C124.9895,231.5857 124.1585,231.0597 123.3235,230.5407 C124.9375,230.8627 126.5835,231.1337 128.2805,231.3117 C129.9515,231.4977 131.7015,231.5507 133.5115,231.4647 C133.5055,231.5327 133.5065,231.5417 133.5195,231.4647 C133.6935,231.4557 133.8645,231.4537 134.0395,231.4427 L135.5745,231.2697 L136.3415,231.1777 L136.5335,231.1527 C138.9475,213.5967 137.1725,226.2707 137.6975,222.3457 L137.6395,222.3167 L137.3855,222.1897 L135.2835,221.0947 C129.6495,218.0687 124.1325,214.7047 118.9645,211.0087 C115.4865,208.5197 112.1665,205.8607 109.1525,203.0047 C107.6605,201.5677 106.2545,200.0827 104.9655,198.5497 L104.2795,197.6837 L105.6835,198.0897 C107.8595,198.6357 110.0315,199.2017 112.2355,199.6197 C121.0115,201.4597 130.0625,202.1227 139.0865,201.5427 L139.0875,201.5427 C140.3195,201.4447 141.5575,201.4147 142.7865,201.2587 L146.4715,200.7577 L148.3135,200.5037 C148.9265,200.4147 149.5305,200.2577 150.1395,200.1367 L153.7835,199.3547 C155.0065,199.1337 156.1915,198.7407 157.3835,198.3877 L160.9595,197.3107 C163.2915,196.5657 165.4795,195.7387 167.7305,194.9267 C172.1915,193.2807 176.5965,191.5527 180.9605,189.8577 C183.1405,189.0127 185.3125,188.1727 187.4715,187.3787 L190.7065,186.2127 L192.8815,185.4737 C194.1845,185.0517 195.4865,184.6447 196.7815,184.2817 C200.2265,182.8897 203.6975,181.7227 207.2275,181.1957 C209.2285,180.8867 211.2535,180.7597 213.2895,180.8767 C215.3225,181.0087 217.3655,181.3787 219.3885,181.9657 C223.4475,183.1297 227.3405,185.2517 231.0195,187.7307 C228.0475,184.4257 224.7125,181.2967 220.6625,178.9387 C218.6455,177.7607 216.4665,176.7647 214.1615,176.0287 C211.8535,175.3047 209.4355,174.8537 207.0005,174.6317 C203.1345,174.2657 199.2695,174.5137 195.5245,174.9927 C193.6295,175.4837 191.7925,176.0537 189.9745,176.6417 L187.6445,177.4317 L184.2525,178.6547 C182.0045,179.4817 179.7955,180.3367 177.5955,181.1877 C173.2035,182.8937 168.8635,184.5957 164.5115,186.2007 C162.3445,186.9827 160.1355,187.8157 157.9945,188.4957 L154.8205,189.4467 C153.7615,189.7617 152.7155,190.1177 151.6215,190.3077 L148.3755,191.0037 C147.8335,191.1107 147.2985,191.2567 146.7495,191.3347 L145.1005,191.5557 L141.8035,192.0087 C140.7045,192.1497 139.5875,192.1707 138.4795,192.2597 C130.3705,192.7807 122.1315,192.1917 114.1005,190.5037 C112.0845,190.1237 110.1005,189.6017 108.1115,189.1057 L106.4115,188.6147 L104.8805,188.1727 L103.3295,187.6687 C101.2225,186.9197 99.0485,186.0427 96.9115,185.2357 L89.8405,182.0997 L88.9485,181.7037 L88.7245,181.6037 C88.6675,181.5867 88.7285,181.6887 88.7245,181.7257 L88.7935,182.0367 L89.0265,183.1037 L89.4585,185.0707 L90.5485,189.9637 L91.0575,192.2437 C91.2615,193.0207 91.6145,193.8717 91.8845,194.6807 L91.8845,194.6817 C92.1215,195.5077 92.6535,196.4367 93.0735,197.3277 L93.7355,198.6747 C94.0075,199.1257 94.3195,199.5787 94.6095,200.0317 C95.2155,200.9317 95.7575,201.8497 96.4145,202.7377 L97.7955,204.4847 C99.3635,206.3537 101.0165,208.0937 102.7255,209.7377 C105.6955,212.5537 108.8225,215.0907 112.0325,217.4627 C111.8055,217.3767 111.5785,217.2947 111.3515,217.2067 C108.4095,216.0627 105.3945,214.7787 102.6415,213.4487 C108.1735,207.8537 95.0275,221.0267 96.4135,219.7167 L96.4675,219.8097 L96.5785,219.9987 L96.8015,220.3737 L97.2575,221.1187 L97.7245,221.8557 L98.0305,222.2387 C96.9755,223.3057 96.6415,223.6557 98.0485,222.2607 L98.2025,222.4537 L99.1665,223.6387 C99.4895,224.0427 99.8205,224.3387 100.1475,224.6917 L101.1355,225.7097 C101.4675,226.0327 101.8035,226.3257 102.1375,226.6357 C102.8055,227.2517 103.4765,227.8577 104.1595,228.4057 C104.3355,228.5527 104.5135,228.6897 104.6905,228.8357 C102.7955,228.2367 100.8525,227.6157 98.9105,227.0157 L95.7995,226.0387 L95.4175,225.9177 C95.3665,225.9057 95.2575,225.8577 95.2565,225.8767 L95.3365,225.9877 L95.6565,226.4317 L96.2215,227.2177 L98.2425,230.0177 L103.0845,236.7177 C103.8255,237.7777 104.6925,238.8707 105.5395,239.9587 L106.8075,241.5907 L107.4425,242.4057 C107.6935,242.6827 107.9795,242.9657 108.2465,243.2447 L111.5035,246.6057 C112.0265,247.1687 112.6355,247.7207 113.2275,248.2717 L114.8665,249.6477 C116.2005,250.8217 117.6495,251.8227 119.0505,252.8947 L121.2335,254.3727 C121.9565,254.8757 122.6955,255.3457 123.4505,255.7877 C126.4135,257.6677 129.5355,259.2207 132.6685,260.7277 C135.8415,262.1317 139.0425,263.4777 142.3285,264.5477 C148.8695,266.7917 155.6105,268.3207 162.4215,269.2957 C169.2315,270.2847 176.1315,270.6017 183.0245,270.3287 C196.7725,269.7147 210.6995,266.6907 223.0885,259.4177 C226.1895,257.6117 229.0825,255.3957 231.7705,252.9587 C233.1315,251.7507 234.3675,250.4067 235.6035,249.0667 L237.3395,246.9447 C237.9185,246.2387 238.4155,245.4677 238.9545,244.7287 C243.1125,238.7057 245.8525,231.7207 246.9585,224.5377 C248.0595,217.3477 247.6565,209.9807 245.7345,202.9487 C244.7655,199.4337 243.4215,195.9917 241.5695,192.7417" id="Fill-29" fill="#6A3416"></path>
        </g>
    </g>
</svg>