<svg viewBox="0 0 86.72 81.28" xmlns="http://www.w3.org/2000/svg"><g transform="translate(-.25 -.25)"><path d="m77.55 39.23-2.7-23-7.73 16.11a13.84 13.84 0 0 1 10.43 6.89zm-56 15a7.63 7.63 0 0 0 0-15.23 7.63 7.63 0 0 0 0 15.23zm37-7.62a7.16 7.16 0 1 0 7.14-7.61 7.39 7.39 0 0 0 -7.15 7.57zm24.22-41.19 4.23 28.11q-4.27 9.3-8.54 18.6a12.36 12.36 0 0 1 -.57 1.22 13.78 13.78 0 0 1 -12.17 7.53 13.58 13.58 0 0 1 -9.81-4.23l-12.3 24.88-12.27-24.88a13.58 13.58 0 0 1 -9.81 4.23 13.76 13.76 0 0 1 -12.17-7.53.35.35 0 0 1 -.07-.12c-.16-.37-.33-.73-.5-1.1q-4.26-9.3-8.54-18.6l4.2-28.11 11-5.17 28.16 58.36 28.11-58.36zm-62.67 26.92-7.73-16.07-2.71 23a13.88 13.88 0 0 1 10.44-6.93z" fill="#fff"/><g fill="#060807"><path d="m77.55 39.23a13.84 13.84 0 0 0 -10.43-6.89l7.73-16.07z"/><path d="m65.69 39a7.63 7.63 0 1 1 -7.15 7.61 7.39 7.39 0 0 1 7.15-7.61z"/><path d="m21.53 39a7.63 7.63 0 0 1 0 15.23 7.63 7.63 0 0 1 0-15.23z"/><path d="m12.37 16.27 7.73 16.07a13.88 13.88 0 0 0 -10.44 6.89z"/></g></g></svg>