<?xml version="1.0" encoding="UTF-8"?>
<svg width="15px" height="11px" viewBox="0 0 15 11" version="1.1" xmlns="http://www.w3.org/2000/svg" xmlns:xlink="http://www.w3.org/1999/xlink">
    <!-- Generator: Sketch 52.4 (67378) - http://www.bohemiancoding.com/sketch -->
    <title>icon/views</title>
    <desc>Created with Sketch.</desc>
    <g id="Symbols" stroke="none" stroke-width="1" fill="none" fill-rule="evenodd">
        <g id="Card" transform="translate(-16.000000, -205.000000)">
            <g id="interactions">
                <g transform="translate(16.000000, 201.000000)">
                    <g id="views">
                        <g id="icon/views" transform="translate(0.000000, 4.000000)">
                            <g id="查看-copy-2">
                                <path d="M15,5.50165714 C15,5.41158195 14.9847727,5.33623696 14.9804457,5.32726995 C14.9771683,5.28263744 14.961941,5.20128989 14.9477817,5.15859071 C14.9439887,5.14796655 14.9390725,5.13682684 14.9347455,5.12620267 C14.9271042,5.10171371 14.9189658,5.07777714 14.9097227,5.05873834 C13.5265441,2.03337561 10.5485702,0 7.5003887,0 C4.4527596,0 1.47504342,2.03149752 0.0981435944,5.04049131 C0.0815537723,5.07315553 0.0698433066,5.1044388 0.0624966524,5.13165285 C0.0592376126,5.14061986 0.0554261778,5.1490529 0.0524433353,5.15695198 C0.0252293942,5.23667921 0.0246954424,5.29215683 0.0268681357,5.27773965 C0.0140897304,5.33623698 0.00237928264,5.45267922 0.00237928264,5.45267922 C-0.000879757248,5.48775551 -0.000879757248,5.51577972 0.00293165953,5.55061666 C0.00293165953,5.55061666 0.0146237002,5.65236554 0.0203500559,5.67302466 C0.0219703723,5.70185904 0.0290408469,5.74376645 0.0374738477,5.78186245 L0.0369214708,5.78186245 C0.0442681249,5.81450826 0.0543398671,5.84606772 0.068204601,5.87707479 C0.0752934829,5.90101137 0.0837264836,5.92332762 0.0910731377,5.94019371 C1.47612977,8.96607199 4.45331198,11 7.5003887,11 C10.5491226,11 13.5270965,8.96772914 14.8944954,5.97392588 C14.9156884,5.93474353 14.9293138,5.89775231 14.9385569,5.86564047 C14.9429023,5.85586329 14.9467321,5.84715407 14.9494388,5.83844484 C14.9733937,5.76877097 14.9782731,5.70839555 14.9761004,5.70839555 L14.9755848,5.70892953 C14.9853435,5.66054079 15,5.58817867 15,5.50165714 Z" id="Path" fill="#CCCCCC" fill-rule="nonzero"></path>
                                <path d="M7.5,3 C6.12187938,3 5,4.12138898 5,5.49986191 C5,6.87805865 6.12187938,8 7.5,8 C8.87812062,8 10,6.87805865 10,5.49986191 C10,4.12138898 8.87812062,3 7.5,3 Z" id="Path" fill="#333333" fill-rule="nonzero"></path>
                            </g>
                        </g>
                    </g>
                </g>
            </g>
        </g>
    </g>
</svg>